<svg xmlns="http://www.w3.org/2000/svg" xmlns:xlink="http://www.w3.org/1999/xlink" width="99" height="123" viewBox="0 0 99 123">
    <defs>
        <path id="prefix__a" d="M0.473 0.684L15.08 0.684 15.08 17.633 0.473 17.633z"/>
    </defs>
    <g fill="none" fill-rule="evenodd">
        <path fill="#F5881E" d="M1.318 97.003L93.632 97.003 93.632 6.572 1.318 6.572z"/>
        <g>
            <path fill="#040409" d="M31.982 15.27c.28 0 .562-.078.838-.234.847-.473 1.84-1.132 2.565-2.047.684-.738 1.152-1.638 1.152-2.778 0-1.75-.459-4.94-1.511-5.98-.355-.505-.796-.827-1.346-.827-.42 0-.845.196-1.267.581-.072.065-.16.13-.26.205-.852.65-2.441 1.856-2.441 6.562 0 2.746.89 4.519 2.27 4.519M27.815 52.947c1.717.307 3.39.462 4.98.462 4.742 0 8.6-1.361 10.862-3.838.09-.095.147-.208.231-.31 1.378-1.496 2.068-3.356 1.88-5.425-.272-3.047-.946-16.985-3.807-23.248-.046-.041-.103-.068-.15-.107-.013-.029-.024-.062-.037-.091l-.117-.159c-1.214-1.086-2.916-1.66-4.919-1.66-5.204 0-11.706 3.931-13.09 9.78-.198.836-.437 1.756-.69 2.73-1.515 5.859-3.592 13.88-.646 18.472 1.16 1.807 3.01 2.949 5.503 3.394M85 23.795c.276.156.559.235.837.235.568 0 1.045-.315 1.42-.857.588-.589.994-1.852.994-3.664 0-3.253-.773-4.722-1.5-5.515-.386-.505-.785-.818-1.09-1.047-.096-.075-.18-.142-.253-.203-.423-.386-.85-.582-1.272-.582-2.25 0-2.71 5.37-2.71 6.808 0 2.534 2.038 3.968 3.574 4.825M59.033 11.551c.28.156.561.234.844.234.569 0 1.044-.316 1.418-.859.591-.59.992-1.85.992-3.66 0-3.287-.8-4.739-1.535-5.524-.36-.46-.725-.762-1.007-.984-.114-.09-.21-.162-.283-.237-.301-.308-.635-.462-.99-.462-1.872 0-3.01 4.63-3.01 6.666 0 2.533 2.038 3.968 3.57 4.826M48.902 39.709c.078 7.673.133 13.215 9.784 13.551.168.006.338.006.5.006 4.006 0 6.788-1.727 8.76-4.117 3.435-3.899 4.46-9.918 5.052-12.839.628-3.095-.699-10.81-4.467-15.37-.07-.086-.13-.18-.199-.265-2.14-2.616-4.685-3.874-7.645-3.74-7.67.37-12.33 7.669-11.874 18.59.062 1.465.074 2.863.09 4.184M93.633 33.58v29.737c-1.517 3.908-3.683 7.047-6.617 7.047l-.148-.007c-5.417-.19-8.746-4.634-11.963-8.937-.648-.875-1.304-1.75-1.98-2.588-4.043-5.072 3.567-13.303 7.66-17.725l.633-.692c.925-1.008 1.644-2.221 2.343-3.392 1.508-2.511 3.06-5.114 6.6-5.495 1.023-.106 1.927.261 2.723 1.086.268.275.516.6.749.967M2.581 38.813c.334 0 .667-.092.992-.273 1.6-.896 3.731-2.4 3.731-5.095 0-.073-.082-7.118-3.024-7.118-.5 0-.996.223-1.477.66-.065.06-.144.12-.235.187C1.671 27.854 0 29.12 0 33.983c0 2.934 1.014 4.83 2.581 4.83M25.765 60.877c-.161 4.796-7.482 16.963-13.253 16.963h-.14c-2.497-.092-7.795-4.803-11.053-9.36V54.522c2.638-4.959 6.672-10.044 9.804-10.044 4.338.155 14.805 11.948 14.642 16.399M83.765 78.686c-.035 5.157-6.306 10.566-11.54 14.24-1.805 1.263-4.654 2.484-8.569 3.429H28.234c-4.182-1.538-7.504-4.36-8.541-7.37-.691-1.996-.332-3.986 1.022-5.756 2.25-2.927 9.748-13.02 11.73-19.926 1.298-4.507 9.867-9.092 16.984-9.092 3.196 0 5.678.967 7.174 2.801 4.126 5.057 10.326 8.393 15.799 11.334 2.998 1.608 5.833 3.132 8.196 4.832 2.116 1.523 3.181 3.371 3.167 5.508" transform="translate(0 .647)"/>
            <path fill="#FFF" d="M7.914 118.798H5.93v-4.14h1.863c1.594 0 2.433.593 2.433 2.01 0 1.467-.867 2.13-2.313 2.13zm-1.983-10.53h1.763c1.405 0 2.152.522 2.152 1.897 0 1.467-.917 1.982-2.221 1.982H5.93v-3.88zm5.601 4.944v-.07c1.912-.522 2.8-1.75 2.8-3.619 0-2.793-1.975-4.168-5.741-4.168H1.318v16.406h7.583c4.345 0 6.179-1.99 6.179-4.662 0-2.42-1.447-3.527-3.548-3.887zM23.917 115.561l1.764-5.445h.1l1.783 5.445h-3.647zm4.684-10.206h-4.993l-5.87 16.406h4.226L23 118.516h5.502l1.114 3.245h4.776l-5.79-16.406z" transform="translate(0 .647)"/>
            <g transform="translate(0 .647) translate(36.677 104.389)">
                <mask id="prefix__b" fill="#fff">
                    <use xlink:href="#prefix__a"/>
                </mask>
                <path fill="#FFF" d="M8.316 8.492v3.012h2.391v2.575c-.409.14-1.086.289-1.785.289-2.948 0-3.597-1.799-3.597-4.853v-.734c0-2.771.939-4.57 4.514-4.57 2.102 0 3.45.43 4.395.762V1.587c-.945-.451-2.702-.903-5.051-.903-4.634 0-8.71 1.99-8.71 8.21v.55c0 6.01 3.279 8.19 8.59 8.19 2.391 0 4.762-.55 6.017-1.066V8.492H8.316z" mask="url(#prefix__b)"/>
            </g>
            <path fill="#FFF" d="M56.123 121.761L60.835 121.761 60.835 105.355 56.123 105.355zM71.986 113.03H70.25v-4.55h1.685c1.693 0 2.391.69 2.391 2.2 0 1.566-.677 2.35-2.341 2.35zm4.225 1.678v-.099c1.735-.734 2.772-1.89 2.772-4.14 0-3.527-2.123-5.114-6.348-5.114h-7.047v16.406h4.705v-5.967h1.714l3.068 5.967h4.874l-3.738-7.053zM88.356 115.561l1.757-5.445h.098l1.785 5.445h-3.64zm4.684-10.206h-5.001l-5.868 16.406h4.225l1.044-3.245h5.501l1.107 3.245h4.783l-5.791-16.406z" transform="translate(0 .647)"/>
        </g>
    </g>
</svg>
